<?xml version="1.0" encoding="UTF-8"?> <svg xmlns="http://www.w3.org/2000/svg" xmlns:xlink="http://www.w3.org/1999/xlink" width="154" height="154" viewBox="0 0 154 154"><defs><filter id="Ellipse_330" x="0" y="0" width="154" height="154"><feOffset dy="3"></feOffset><feGaussianBlur stdDeviation="8" result="blur"></feGaussianBlur><feFlood flood-opacity="0.161"></feFlood><feComposite operator="in" in2="blur"></feComposite><feComposite in="SourceGraphic"></feComposite></filter></defs><g id="Group_463" data-name="Group 463" transform="translate(-237 -6528)"><g transform="matrix(1, 0, 0, 1, 237, 6528)" filter="url(#Ellipse_330)"><circle id="Ellipse_330-2" data-name="Ellipse 330" cx="53" cy="53" r="53" transform="translate(24 21)" fill="#000a40"></circle></g><path id="noun_Artificial_brain_1955254" data-name="noun_Artificial brain_1955254" d="M14.552,42.741a4.619,4.619,0,0,0,4.557-3.914H32.038v10.64H21.917a4.616,4.616,0,1,0,0,1.4H32.038v6.158a3.818,3.818,0,0,1-3.181,3.758,4.616,4.616,0,1,0,.016,1.416,5.224,5.224,0,0,0,4.57-5.174v-18.2h9.151v18.2a5.224,5.224,0,0,0,4.57,5.174,4.615,4.615,0,1,0,.016-1.416A3.818,3.818,0,0,1,44,57.029V50.872H54.119a4.616,4.616,0,1,0,0-1.4H44V38.828H56.927a4.616,4.616,0,1,0,0-1.4H44V26.695H54.119a4.616,4.616,0,1,0,0-1.4H44V19.133a3.818,3.818,0,0,1,3.181-3.758,4.616,4.616,0,1,0-.016-1.416,5.224,5.224,0,0,0-4.57,5.174V37.424H33.442V19.133a5.224,5.224,0,0,0-4.57-5.174,4.615,4.615,0,1,0-.016,1.416,3.818,3.818,0,0,1,3.181,3.758v6.158H21.917a4.616,4.616,0,1,0,0,1.4H32.038V37.424H19.109a4.613,4.613,0,1,0-4.557,5.318Zm2.808,10.64a3.212,3.212,0,1,1,3.212-3.212A3.215,3.215,0,0,1,17.36,53.381Zm6.949,11.377a3.212,3.212,0,1,1,3.212-3.212A3.215,3.215,0,0,1,24.309,64.758Zm27.417-6.423a3.212,3.212,0,1,1-3.211,3.212A3.216,3.216,0,0,1,51.726,58.335Zm6.949-11.377a3.212,3.212,0,1,1-3.211,3.212A3.216,3.216,0,0,1,58.675,46.958Zm2.808-12.044a3.212,3.212,0,1,1-3.211,3.212A3.216,3.216,0,0,1,61.483,34.914ZM58.675,22.781a3.212,3.212,0,1,1-3.211,3.212A3.216,3.216,0,0,1,58.675,22.781ZM51.726,11.4a3.212,3.212,0,1,1-3.211,3.212A3.216,3.216,0,0,1,51.726,11.4ZM24.309,17.827a3.212,3.212,0,1,1,3.212-3.212A3.215,3.215,0,0,1,24.309,17.827ZM17.36,29.2a3.212,3.212,0,1,1,3.212-3.212A3.215,3.215,0,0,1,17.36,29.2Zm-2.808,5.71a3.212,3.212,0,1,1-3.211,3.212A3.216,3.216,0,0,1,14.552,34.914Z" transform="translate(276.25 6564.186)" fill="#00dbde"></path></g></svg> 