<?xml version="1.0" encoding="UTF-8"?> <svg xmlns="http://www.w3.org/2000/svg" xmlns:xlink="http://www.w3.org/1999/xlink" width="154" height="154" viewBox="0 0 154 154"><defs><filter id="Ellipse_375" x="0" y="0" width="154" height="154"><feOffset dy="3"></feOffset><feGaussianBlur stdDeviation="8" result="blur"></feGaussianBlur><feFlood flood-opacity="0.161"></feFlood><feComposite operator="in" in2="blur"></feComposite><feComposite in="SourceGraphic"></feComposite></filter></defs><g id="Group_937" data-name="Group 937" transform="translate(-760 -1295)"><g transform="matrix(1, 0, 0, 1, 760, 1295)" filter="url(#Ellipse_375)"><circle id="Ellipse_375-2" data-name="Ellipse 375" cx="53" cy="53" r="53" transform="translate(24 21)" fill="#000a40"></circle></g><g id="noun_Branch_2448909" transform="translate(803.4 1329.5)"><g id="Group_988" data-name="Group 988" transform="translate(2.6 18.5)"><g id="Group_987" data-name="Group 987"><path id="Path_1162" data-name="Path 1162" d="M79.809,55.1a8.709,8.709,0,1,0,8.709,8.709A8.7,8.7,0,0,0,79.809,55.1Zm0,13.657a4.948,4.948,0,1,1,4.948-4.948A4.942,4.942,0,0,1,79.809,68.757Z" transform="translate(-25.906 -30.952)" fill="#00dbde" stroke="#000a40" stroke-width="2.5"></path><path id="Path_1163" data-name="Path 1163" d="M37.238,43.835a1.913,1.913,0,0,0-2.705,2.705L37.5,49.509H28.925V29.056H47.992a8.709,8.709,0,1,0,0-3.695H19.82a8.709,8.709,0,1,0,0,3.695H25.1v22.3a1.915,1.915,0,0,0,1.913,1.913H37.5L34.533,56.3a1.953,1.953,0,0,0,0,2.705,1.788,1.788,0,0,0,1.32.528,1.962,1.962,0,0,0,1.32-.528l6.268-6.268a1.913,1.913,0,0,0,0-2.639ZM56.5,22.261a4.948,4.948,0,1,1-4.948,4.948A4.942,4.942,0,0,1,56.5,22.261Zm-45.26,9.831a4.948,4.948,0,1,1,4.948-4.948A4.942,4.942,0,0,1,11.243,32.091Z" transform="translate(-2.6 -18.5)" fill="#00dbde" stroke="#000a40" stroke-width="2.5"></path></g></g></g></g></svg> 