<?xml version="1.0" encoding="UTF-8"?> <svg xmlns="http://www.w3.org/2000/svg" xmlns:xlink="http://www.w3.org/1999/xlink" width="154" height="154" viewBox="0 0 154 154"><defs><filter id="Ellipse_329" x="0" y="0" width="154" height="154"><feOffset dy="3"></feOffset><feGaussianBlur stdDeviation="8" result="blur"></feGaussianBlur><feFlood flood-opacity="0.161"></feFlood><feComposite operator="in" in2="blur"></feComposite><feComposite in="SourceGraphic"></feComposite></filter></defs><g id="Group_464" data-name="Group 464" transform="translate(-487 -6528)"><g transform="matrix(1, 0, 0, 1, 487, 6528)" filter="url(#Ellipse_329)"><circle id="Ellipse_329-2" data-name="Ellipse 329" cx="53" cy="53" r="53" transform="translate(24 21)" fill="#000a40"></circle></g><g id="noun_automation_1671169" transform="translate(502.779 6543.606)"><g id="Group_204" data-name="Group 204" transform="translate(25 37)"><path id="Path_334" data-name="Path 334" d="M42.131,63a4.131,4.131,0,1,0,4.131,4.131A4.136,4.136,0,0,0,42.131,63Zm0,6.61a2.479,2.479,0,1,1,2.479-2.479A2.482,2.482,0,0,1,42.131,69.61Z" transform="translate(-27.26 -41.519)" fill="#00dbde"></path><path id="Path_335" data-name="Path 335" d="M65.3,47.61A3.3,3.3,0,1,0,62,44.3,3.308,3.308,0,0,0,65.3,47.61Zm0-4.957A1.652,1.652,0,1,1,63.652,44.3,1.654,1.654,0,0,1,65.3,42.652Z" transform="translate(-31.431 -37.695)" fill="#00dbde"></path><path id="Path_336" data-name="Path 336" d="M88.616,47.74a4.131,4.131,0,1,1,0-8.262.826.826,0,0,0,0-1.652A5.789,5.789,0,0,0,82.9,42.8c-.021,0-.041-.013-.064-.013h-.826v-3.3a.826.826,0,0,0-.826-.826H63.23A6.6,6.6,0,0,0,52.3,42.944L38.922,54.409a8.25,8.25,0,0,0-4.81,14.115L30.991,79.136H25.826a.826.826,0,1,0,0,1.652H80.355a.826.826,0,0,0,0-1.652h-31.6L45.63,68.524a8.232,8.232,0,0,0,2.444-4.964L59.539,50.185a6.575,6.575,0,0,0,3.691-1.618H81.181a.826.826,0,0,0,.826-.826v-3.3h.826c.022,0,.042-.012.064-.013a5.789,5.789,0,0,0,5.72,4.97.826.826,0,0,0,0-1.652ZM58.867,38.652a4.952,4.952,0,0,1,3.487,1.435c.068.067.131.138.193.207.047.052.1.1.143.156.031.037.059.078.088.116A4.929,4.929,0,0,1,63.8,43.075c0,.01,0,.019,0,.03a4.846,4.846,0,0,1,.026.5c0,.171-.009.339-.026.5,0,.01,0,.019,0,.03a4.935,4.935,0,0,1-1.021,2.507c-.03.038-.056.078-.088.116-.045.054-.1.1-.142.156-.063.069-.124.146-.192.213a4.673,4.673,0,0,1-3.245,1.429h-.007l-.232.007a4.971,4.971,0,0,1-4.964-4.96l.007-.234v-.008A4.881,4.881,0,0,1,58.867,38.652ZM44.231,69.624l2.8,9.511H32.713l2.8-9.511c.033.02.069.034.1.053a8.18,8.18,0,0,0,8.52,0C44.164,69.657,44.2,69.644,44.231,69.624Zm-.084-1.969c-.1.083-.206.157-.307.234-.061.046-.124.093-.188.137-.1.071-.208.136-.313.2-.066.04-.133.083-.2.121-.108.061-.219.119-.33.174-.069.034-.138.069-.209.1-.112.052-.227.1-.342.144-.075.03-.15.057-.227.084-.113.039-.226.076-.342.11-.086.024-.174.046-.262.067-.107.026-.215.052-.324.074s-.226.036-.34.052c-.088.012-.177.027-.266.036-.207.019-.416.031-.627.031s-.42-.012-.626-.031c-.089-.009-.177-.024-.266-.036-.114-.016-.227-.031-.34-.052s-.216-.047-.324-.074c-.088-.021-.176-.043-.262-.067-.116-.034-.229-.071-.342-.11-.077-.026-.153-.055-.227-.084-.115-.045-.228-.092-.34-.143-.071-.032-.141-.067-.211-.1-.111-.055-.22-.112-.327-.173-.069-.04-.136-.083-.2-.124-.1-.064-.207-.128-.307-.2-.066-.046-.129-.1-.193-.144-.1-.074-.2-.147-.29-.226a6.619,6.619,0,0,1-2.351-5.06c0-3.459,2.674-6.6,6.063-6.6h0c.18,0,.361-.014.545-.014A6.635,6.635,0,0,1,46.495,62.6c0,.184-.014.372-.014.552v0A6.069,6.069,0,0,1,44.147,67.656ZM48,61.113c-.006-.031-.015-.062-.021-.093-.015-.074-.033-.148-.05-.221q-.058-.259-.132-.511c-.023-.079-.047-.158-.073-.236-.057-.175-.121-.348-.19-.518-.023-.057-.044-.116-.068-.173-.1-.221-.2-.439-.314-.65-.026-.05-.057-.1-.085-.146-.092-.162-.188-.321-.29-.477-.045-.068-.09-.133-.136-.2-.1-.14-.2-.276-.306-.409-.047-.058-.092-.117-.14-.174-.153-.182-.311-.359-.479-.527l-.009-.009c-.168-.168-.345-.326-.526-.478-.057-.048-.116-.093-.174-.139q-.2-.16-.411-.307c-.065-.045-.13-.091-.2-.135-.157-.1-.317-.2-.482-.292-.048-.026-.094-.056-.142-.083-.212-.114-.43-.219-.652-.315-.055-.023-.112-.044-.168-.066-.172-.069-.346-.135-.525-.193-.077-.025-.154-.049-.232-.071-.17-.05-.342-.093-.516-.133-.073-.017-.144-.035-.217-.05-.032-.006-.063-.016-.094-.021L52.414,45.02c.007.035.021.067.03.1a6.566,6.566,0,0,0,.207.7c.025.069.05.139.076.207a6.531,6.531,0,0,0,.347.752c.014.026.031.05.045.074a6.632,6.632,0,0,0,.409.63c.043.059.086.118.131.176a6.641,6.641,0,0,0,.54.62l.007.007a6.765,6.765,0,0,0,.62.54c.057.045.115.087.173.13a6.622,6.622,0,0,0,.638.413c.022.012.044.028.066.04a6.615,6.615,0,0,0,.757.349c.067.026.134.05.2.074a6.542,6.542,0,0,0,.706.209c.033.007.063.021.1.028Zm32.358-14.2H64.6c.017-.031.03-.065.048-.1a6.5,6.5,0,0,0,.294-.594c.038-.089.07-.181.1-.272.063-.164.121-.33.171-.5.027-.1.051-.192.074-.289.04-.168.074-.338.1-.511.013-.086.029-.171.039-.257a6.5,6.5,0,0,0,.051-.787,6.339,6.339,0,0,0-.052-.787c-.01-.086-.026-.172-.039-.257q-.041-.259-.1-.511c-.023-.1-.047-.193-.074-.289-.05-.17-.108-.335-.17-.5-.035-.092-.067-.183-.106-.273a6.575,6.575,0,0,0-.293-.592c-.017-.031-.03-.065-.048-.1H80.355Z" transform="translate(-25 -37)" fill="#00dbde"></path></g><path id="Path_337" data-name="Path 337" d="M51.826,59.349a.826.826,0,0,1-.584-1.41l6.2-6.2a.826.826,0,0,1,1.168,1.168l-6.2,6.2A.824.824,0,0,1,51.826,59.349Z" transform="translate(-4.519 -2.52)" fill="#00dbde"></path><path id="Path_338" data-name="Path 338" d="M46.478,85.609a.827.827,0,0,1-.784-.565l-1.652-4.957a.826.826,0,1,1,1.567-.523l1.652,4.957a.827.827,0,0,1-.783,1.088Z" transform="translate(-3.302 -7.3)" fill="#00dbde"></path><path id="Path_339" data-name="Path 339" d="M86.567,46.652H75.826a.826.826,0,1,1,0-1.652h10.74a.826.826,0,1,1,0,1.652Z" transform="translate(-8.691 -1.39)" fill="#00dbde"></path></g></g></svg> 