<?xml version="1.0" encoding="UTF-8"?> <svg xmlns="http://www.w3.org/2000/svg" xmlns:xlink="http://www.w3.org/1999/xlink" width="154" height="154" viewBox="0 0 154 154"><defs><filter id="Ellipse_375" x="0" y="0" width="154" height="154"><feOffset dy="3"></feOffset><feGaussianBlur stdDeviation="8" result="blur"></feGaussianBlur><feFlood flood-opacity="0.161"></feFlood><feComposite operator="in" in2="blur"></feComposite><feComposite in="SourceGraphic"></feComposite></filter></defs><g id="Group_995" data-name="Group 995" transform="translate(-760 -1296)"><g transform="matrix(1, 0, 0, 1, 760, 1296)" filter="url(#Ellipse_375)"><circle id="Ellipse_375-2" data-name="Ellipse 375" cx="53" cy="53" r="53" transform="translate(24 21)" fill="#000a40"></circle></g><g id="noun_exception_3535754" transform="translate(799 1330.001)"><path id="Path_1175" data-name="Path 1175" d="M43.587,50.585,39,55.171l-2.586-2.586a2,2,0,0,0-2.828,2.828l4,4a2,2,0,0,0,2.828,0l6-6a2,2,0,1,0-2.828-2.828Z" fill="#00dbde" stroke="#000a40" stroke-width="2.5"></path><path id="Path_1176" data-name="Path 1176" d="M69.414,47.586a2,2,0,1,0-2.828,2.828L69.171,53H52.83A12.982,12.982,0,0,0,27.17,53H6a2,2,0,0,0,0,4H27.17a12.982,12.982,0,0,0,25.66,0H69.173l-2.587,2.587a2,2,0,0,0,2.828,2.828l6-6a2,2,0,0,0,0-2.828ZM40,64a9,9,0,1,1,9-9A9,9,0,0,1,40,64Z" fill="#00dbde" stroke="#000a40" stroke-width="2.5"></path><path id="Path_1177" data-name="Path 1177" d="M35.05,29.948a2,2,0,0,0,2.829,0L40,27.827l2.122,2.121A2,2,0,0,0,44.95,27.12L42.828,25l2.121-2.121a2,2,0,0,0-2.828-2.828L40,22.171,37.878,20.05a2,2,0,1,0-2.828,2.828L37.172,25,35.05,27.12a2,2,0,0,0,0,2.828Z" fill="#00dbde" stroke="#000a40" stroke-width="2.5"></path><path id="Path_1178" data-name="Path 1178" d="M6,27H27.17a13,13,0,1,0,0-4H6a2,2,0,0,0,0,4ZM40,16a9,9,0,1,1-9,9,9,9,0,0,1,9-9Z" fill="#00dbde" stroke="#000a40" stroke-width="2.5"></path></g></g></svg> 