<?xml version="1.0" encoding="UTF-8"?> <svg xmlns="http://www.w3.org/2000/svg" xmlns:xlink="http://www.w3.org/1999/xlink" width="154" height="154" viewBox="0 0 154 154"><defs><filter id="Ellipse_327" x="0" y="0" width="154" height="154"><feOffset dy="3"></feOffset><feGaussianBlur stdDeviation="8" result="blur"></feGaussianBlur><feFlood flood-opacity="0.161"></feFlood><feComposite operator="in" in2="blur"></feComposite><feComposite in="SourceGraphic"></feComposite></filter></defs><g id="Group_465" data-name="Group 465" transform="translate(-737 -6528)"><g transform="matrix(1, 0, 0, 1, 737, 6528)" filter="url(#Ellipse_327)"><circle id="Ellipse_327-2" data-name="Ellipse 327" cx="53" cy="53" r="53" transform="translate(24 21)" fill="#000a40"></circle></g><g id="noun_manufacturing_1643242" transform="translate(780.002 6568)"><path id="Path_340" data-name="Path 340" d="M74.116,23.993a3.155,3.155,0,1,0,3.156-3.156A3.159,3.159,0,0,0,74.116,23.993Zm5.106,0a1.95,1.95,0,1,1-1.949-1.95A1.951,1.951,0,0,1,79.222,23.993Z" transform="translate(-25.459 -4.303)" fill="#00dbde"></path><path id="Path_341" data-name="Path 341" d="M44.766,23.993a3.156,3.156,0,1,0,3.156-3.156A3.159,3.159,0,0,0,44.766,23.993Zm5.106,0a1.95,1.95,0,1,1-1.95-1.95A1.952,1.952,0,0,1,49.872,23.993Z" transform="translate(-13.805 -4.303)" fill="#00dbde"></path><path id="Path_342" data-name="Path 342" d="M15.416,23.993a3.155,3.155,0,1,0,3.155-3.156A3.159,3.159,0,0,0,15.416,23.993Zm5.106,0a1.95,1.95,0,1,1-1.95-1.95A1.952,1.952,0,0,1,20.522,23.993Z" transform="translate(-2.151 -4.303)" fill="#00dbde"></path><path id="Path_343" data-name="Path 343" d="M55.908,74.921V71.678a4.095,4.095,0,1,0-8.19,0v3.191H38.21V71.678a4.095,4.095,0,1,0-8.19,0v3.191H20.515V71.678a4.1,4.1,0,1,0-8.19,0v3.243A2.847,2.847,0,0,0,10,77.716v.537A2.85,2.85,0,0,0,12.845,81.1H55.386a2.85,2.85,0,0,0,2.847-2.847v-.537A2.85,2.85,0,0,0,55.908,74.921Zm-6.984-3.243a2.889,2.889,0,1,1,5.778,0v3.191H48.924Zm-17.7,0a2.889,2.889,0,1,1,5.778,0v3.191H31.227ZM16.42,68.789a2.892,2.892,0,0,1,2.889,2.889v3.191H13.531V71.678A2.892,2.892,0,0,1,16.42,68.789Zm40.607,9.463a1.643,1.643,0,0,1-1.641,1.641H12.845A1.643,1.643,0,0,1,11.2,78.252v-.537a1.643,1.643,0,0,1,1.641-1.641H55.386a1.643,1.643,0,0,1,1.641,1.641v.537Z" transform="translate(0 -22.864)" fill="#00dbde"></path><path id="Path_344" data-name="Path 344" d="M57.632,11.206a.6.6,0,0,0,0-1.206H10.6a.6.6,0,1,0,0,1.206h5.215V13.4A6.414,6.414,0,0,0,13.565,25.53v5.41a1.851,1.851,0,0,0,1.849,1.849h.4v1.36a5.1,5.1,0,0,0-3.01,8.68.6.6,0,0,0,.853-.853,3.9,3.9,0,1,1,5.52,0,.6.6,0,1,0,.853.853,5.1,5.1,0,0,0-3.01-8.68v-1.36h.4a1.851,1.851,0,0,0,1.849-1.849V25.53A6.415,6.415,0,0,0,17.024,13.4v-2.19H33.514V13.4A6.415,6.415,0,0,0,31.261,25.53v5.41a1.851,1.851,0,0,0,1.849,1.849h.4v1.36a5.1,5.1,0,0,0-3.01,8.68.6.6,0,1,0,.853-.853,3.9,3.9,0,1,1,5.52,0,.6.6,0,1,0,.853.853,5.1,5.1,0,0,0-3.01-8.68v-1.36h.4a1.851,1.851,0,0,0,1.849-1.849V25.53A6.415,6.415,0,0,0,34.72,13.4V11.206H51.211V13.4A6.415,6.415,0,0,0,48.958,25.53v5.41a1.851,1.851,0,0,0,1.849,1.849h.4v1.36a5.1,5.1,0,0,0-3.01,8.68.6.6,0,0,0,.853-.853,3.9,3.9,0,1,1,5.52,0,.6.6,0,1,0,.853.853,5.1,5.1,0,0,0-3.01-8.68v-1.36h.4A1.851,1.851,0,0,0,54.67,30.94V25.53A6.415,6.415,0,0,0,52.417,13.4v-2.19ZM18.071,30.939a.644.644,0,0,1-.643.643H15.414a.644.644,0,0,1-.643-.643V25.986a6.215,6.215,0,0,0,3.3,0Zm3.565-11.152a5.215,5.215,0,1,1-5.215-5.215A5.22,5.22,0,0,1,21.636,19.787ZM35.768,30.939a.644.644,0,0,1-.643.643H33.11a.644.644,0,0,1-.643-.643V25.986a6.215,6.215,0,0,0,3.3,0v4.954Zm3.565-11.152a5.215,5.215,0,1,1-5.215-5.215A5.22,5.22,0,0,1,39.332,19.787ZM53.464,30.939a.644.644,0,0,1-.643.643H50.807a.644.644,0,0,1-.643-.643V25.986a6.213,6.213,0,0,0,3.3,0Zm3.565-11.152a5.215,5.215,0,1,1-5.215-5.215A5.22,5.22,0,0,1,57.029,19.787Z" transform="translate(-0.001)" fill="#00dbde"></path></g></g></svg> 