<?xml version="1.0" encoding="UTF-8"?> <svg xmlns="http://www.w3.org/2000/svg" xmlns:xlink="http://www.w3.org/1999/xlink" width="154" height="154" viewBox="0 0 154 154"><defs><filter id="Ellipse_375" x="0" y="0" width="154" height="154"><feOffset dy="3"></feOffset><feGaussianBlur stdDeviation="8" result="blur"></feGaussianBlur><feFlood flood-opacity="0.161"></feFlood><feComposite operator="in" in2="blur"></feComposite><feComposite in="SourceGraphic"></feComposite></filter></defs><g id="Group_992" data-name="Group 992" transform="translate(-760 -1296)"><g transform="matrix(1, 0, 0, 1, 760, 1296)" filter="url(#Ellipse_375)"><circle id="Ellipse_375-2" data-name="Ellipse 375" cx="53" cy="53" r="53" transform="translate(24 21)" fill="#000a40"></circle></g><g id="noun_differentation_1162442" transform="translate(799.386 380.024)"><path id="Path_1170" data-name="Path 1170" d="M7.573,959.365a.7.7,0,0,0-.573.7v29.6a.7.7,0,0,0,.7.7H36.6v28.895a.7.7,0,0,0,.7.7h29.6a.7.7,0,0,0,.7-.7V989.758a.709.709,0,0,0,0-.088q0-.033,0-.066V960.07a.642.642,0,0,0-.7-.7H7.7a.7.7,0,0,0-.132,0Zm.837,1.409H36.6v28.19H8.409Zm29.6,0H66.2v28.19H38.01Zm0,29.6H66.2v28.19H38.01v-28.19ZM21.1,994.6a11.276,11.276,0,1,0,11.276,11.276A11.287,11.287,0,0,0,21.1,994.6Zm0,1.409a9.867,9.867,0,1,1-9.867,9.867A9.856,9.856,0,0,1,21.1,996.012Z" transform="translate(0)" fill="#00dbde"></path></g></g></svg> 