<?xml version="1.0" encoding="UTF-8"?> <svg xmlns="http://www.w3.org/2000/svg" xmlns:xlink="http://www.w3.org/1999/xlink" width="154" height="154" viewBox="0 0 154 154"><defs><filter id="Ellipse_331" x="0" y="0" width="154" height="154"><feOffset dy="3"></feOffset><feGaussianBlur stdDeviation="8" result="blur"></feGaussianBlur><feFlood flood-opacity="0.161"></feFlood><feComposite operator="in" in2="blur"></feComposite><feComposite in="SourceGraphic"></feComposite></filter></defs><g id="Group_468" data-name="Group 468" transform="translate(-604 -6747)"><g transform="matrix(1, 0, 0, 1, 604, 6747)" filter="url(#Ellipse_331)"><circle id="Ellipse_331-2" data-name="Ellipse 331" cx="53" cy="53" r="53" transform="translate(24 21)" fill="#000a40"></circle></g><g id="noun_double_helix_210261" data-name="noun_double helix_210261" transform="translate(637.666 6783.408)"><g id="Group_206" data-name="Group 206" transform="translate(45.684 36.486)"><path id="Path_364" data-name="Path 364" d="M53.609,62.647a.614.614,0,0,1-.632-.421.7.7,0,0,1,.351-.913C59.931,58.574,64,55.553,64,49.3a.7.7,0,1,1,1.4,0c0,7.8-5.97,10.957-11.589,13.345C53.82,62.577,53.68,62.647,53.609,62.647Z" transform="translate(-52.923 -48.6)" fill="#00dbde"></path></g><g id="Group_207" data-name="Group 207" transform="translate(28.6 51.673)"><path id="Path_365" data-name="Path 365" d="M29.3,84.535a.664.664,0,0,1-.7-.7c0-7.656,5.338-11.027,11.168-13.556a.692.692,0,0,1,.562,1.264C34.149,74.21,30,77.3,30,83.833A.664.664,0,0,1,29.3,84.535Z" transform="translate(-28.6 -70.223)" fill="#00dbde"></path></g><g id="Group_208" data-name="Group 208" transform="translate(28.6 7.9)"><path id="Path_366" data-name="Path 366" d="M40.47,22.017a.422.422,0,0,1-.281-.07C34.57,19.629,28.6,16.469,28.6,8.6a.7.7,0,1,1,1.4,0c0,6.251,4.074,9.271,10.676,12.01a.7.7,0,0,1,.351.913A.535.535,0,0,1,40.47,22.017Z" transform="translate(-28.6 -7.9)" fill="#00dbde"></path></g><g id="Group_209" data-name="Group 209" transform="translate(46.246 23.228)"><path id="Path_367" data-name="Path 367" d="M64.945,43.965a.664.664,0,0,1-.7-.7c0-6.462-4.074-9.552-10.114-12.221a.692.692,0,1,1,.562-1.264c5.689,2.458,10.957,5.83,10.957,13.485A.664.664,0,0,1,64.945,43.965Z" transform="translate(-53.723 -29.723)" fill="#00dbde"></path></g><g id="Group_212" data-name="Group 212" transform="translate(33.025 12.044)"><g id="Group_210" data-name="Group 210" transform="translate(0)"><path id="Path_368" data-name="Path 368" d="M54.988,15.2H35.6a.7.7,0,1,1,0-1.4H54.988a.664.664,0,0,1,.7.7A.7.7,0,0,1,54.988,15.2Z" transform="translate(-34.9 -13.8)" fill="#00dbde"></path></g><g id="Group_211" data-name="Group 211" transform="translate(0 48.463)"><path id="Path_369" data-name="Path 369" d="M54.988,84.2H35.6a.7.7,0,0,1,0-1.4H54.988a.664.664,0,0,1,.7.7A.7.7,0,0,1,54.988,84.2Z" transform="translate(-34.9 -82.8)" fill="#00dbde"></path></g></g><g id="Group_213" data-name="Group 213" transform="translate(33.025 12.044)"><path id="Path_370" data-name="Path 370" d="M54.988,15.2H35.6a.7.7,0,1,1,0-1.4H54.988a.664.664,0,0,1,.7.7A.7.7,0,0,1,54.988,15.2Z" transform="translate(-34.9 -13.8)" fill="#00dbde"></path></g><g id="Group_214" data-name="Group 214" transform="translate(38.644 16.118)"><path id="Path_371" data-name="Path 371" d="M51.75,21H43.6a.7.7,0,1,1,0-1.4H51.75a.664.664,0,0,1,.7.7A.7.7,0,0,1,51.75,21Z" transform="translate(-42.9 -19.6)" fill="#00dbde"></path></g><g id="Group_215" data-name="Group 215" transform="translate(38.644 56.152)"><path id="Path_372" data-name="Path 372" d="M51.75,78H43.6a.7.7,0,0,1,0-1.4H51.75a.664.664,0,0,1,.7.7A.7.7,0,0,1,51.75,78Z" transform="translate(-42.9 -76.6)" fill="#00dbde"></path></g><g id="Group_216" data-name="Group 216" transform="translate(33.025 60.507)"><path id="Path_373" data-name="Path 373" d="M54.988,84.2H35.6a.7.7,0,0,1,0-1.4H54.988a.664.664,0,0,1,.7.7A.7.7,0,0,1,54.988,84.2Z" transform="translate(-34.9 -82.8)" fill="#00dbde"></path></g><g id="Group_217" data-name="Group 217" transform="translate(32.814 36.065)"><path id="Path_374" data-name="Path 374" d="M55.109,49.4H35.3a.7.7,0,0,1,0-1.4H55.109a.664.664,0,0,1,.7.7A.7.7,0,0,1,55.109,49.4Z" transform="translate(-34.6 -48)" fill="#00dbde"></path></g><g id="Group_218" data-name="Group 218" transform="translate(35.483 31.008)"><path id="Path_375" data-name="Path 375" d="M53.571,42.2H39.1a.7.7,0,1,1,0-1.4H53.571a.664.664,0,0,1,.7.7A.7.7,0,0,1,53.571,42.2Z" transform="translate(-38.4 -40.8)" fill="#00dbde"></path></g><g id="Group_219" data-name="Group 219" transform="translate(40.751 27.074)"><path id="Path_376" data-name="Path 376" d="M50.536,36.6H46.6a.7.7,0,1,1,0-1.4h3.933a.664.664,0,0,1,.7.7A.7.7,0,0,1,50.536,36.6Z" transform="translate(-45.9 -35.2)" fill="#00dbde"></path></g><g id="Group_220" data-name="Group 220" transform="translate(40.751 45.406)"><path id="Path_377" data-name="Path 377" d="M50.536,62.7H46.6a.7.7,0,1,1,0-1.4h3.933a.664.664,0,0,1,.7.7A.7.7,0,0,1,50.536,62.7Z" transform="translate(-45.9 -61.3)" fill="#00dbde"></path></g><g id="Group_221" data-name="Group 221" transform="translate(35.483 41.332)"><path id="Path_378" data-name="Path 378" d="M53.571,56.9H39.1a.7.7,0,1,1,0-1.4H53.571a.664.664,0,0,1,.7.7A.7.7,0,0,1,53.571,56.9Z" transform="translate(-38.4 -55.5)" fill="#00dbde"></path></g><g id="Group_222" data-name="Group 222" transform="translate(28.6 7.9)"><path id="Path_379" data-name="Path 379" d="M29.3,37.469a.664.664,0,0,1-.7-.7c0-8.78,7.3-11.659,14.328-14.469,7.094-2.809,13.837-5.478,13.837-13.7a.7.7,0,1,1,1.4,0c0,9.131-7.445,12.151-14.679,15.031C36.607,26.372,30,28.971,30,36.767A.664.664,0,0,1,29.3,37.469Z" transform="translate(-28.6 -7.9)" fill="#00dbde"></path></g><g id="Group_223" data-name="Group 223" transform="translate(28.6 36.416)"><path id="Path_380" data-name="Path 380" d="M57.467,78.069a.664.664,0,0,1-.7-.7c0-7.8-6.532-10.395-13.485-13.134C36.045,61.353,28.6,58.4,28.6,49.2a.7.7,0,1,1,1.4,0c0,8.218,6.672,10.887,13.837,13.7,7.024,2.809,14.328,5.689,14.328,14.469A.664.664,0,0,1,57.467,78.069Z" transform="translate(-28.6 -48.5)" fill="#00dbde"></path></g></g></g></svg> 