<?xml version="1.0" encoding="UTF-8"?>
<svg xmlns="http://www.w3.org/2000/svg" xmlns:xlink="http://www.w3.org/1999/xlink" width="54pt" height="54pt" viewBox="0 0 54 54" version="1.1">
<g id="surface1">
<path style=" stroke:none;fill-rule:nonzero;fill:rgb(0%,3.921569%,25.490196%);fill-opacity:1;" d="M 54 27 C 54 41.910156 41.910156 54 27 54 C 12.089844 54 0 41.910156 0 27 C 0 12.089844 12.089844 0 27 0 C 41.910156 0 54 12.089844 54 27 Z M 54 27 "/>
<path style=" stroke:none;fill-rule:nonzero;fill:rgb(0%,85.882353%,87.058824%);fill-opacity:1;" d="M 43.378906 23.824219 L 34.179688 23.824219 L 34.179688 13.210938 C 34.179688 12.820312 33.863281 12.503906 33.472656 12.503906 L 10.832031 12.503906 C 10.644531 12.503906 10.460938 12.578125 10.328125 12.710938 C 10.195312 12.84375 10.121094 13.023438 10.121094 13.210938 L 10.121094 31.609375 C 10.121094 32 10.441406 32.316406 10.832031 32.316406 L 12.953125 32.316406 L 12.953125 36.5625 L 20.59375 32.316406 L 24.273438 32.316406 L 24.273438 38.683594 C 24.273438 39.074219 24.589844 39.394531 24.980469 39.394531 L 36.300781 39.394531 L 41.257812 42.222656 L 41.257812 39.394531 L 43.378906 39.394531 C 43.769531 39.390625 44.085938 39.074219 44.085938 38.683594 L 44.085938 24.535156 C 44.085938 24.144531 43.769531 23.824219 43.378906 23.824219 Z M 20.226562 30.902344 L 19.90625 31.078125 L 14.367188 34.15625 L 14.367188 30.902344 L 11.539062 30.902344 L 11.539062 13.917969 L 32.765625 13.917969 L 32.765625 30.902344 Z M 42.671875 37.976562 L 39.839844 37.976562 L 39.839844 39.785156 L 37.003906 38.164062 L 36.679688 37.976562 L 25.6875 37.976562 L 25.6875 32.316406 L 33.472656 32.316406 C 33.660156 32.316406 33.839844 32.242188 33.972656 32.109375 C 34.105469 31.976562 34.179688 31.796875 34.179688 31.609375 L 34.179688 25.242188 L 42.671875 25.242188 Z M 42.671875 37.976562 "/>
<path style=" stroke:none;fill-rule:nonzero;fill:rgb(0%,85.882353%,87.058824%);fill-opacity:1;" d="M 22.152344 16.75 C 21.179688 16.699219 20.226562 17.058594 19.535156 17.75 C 18.917969 18.460938 18.589844 19.382812 18.613281 20.328125 C 18.628906 20.714844 18.953125 21.015625 19.339844 21.003906 C 19.726562 20.996094 20.035156 20.675781 20.027344 20.289062 C 20.027344 20.277344 20.027344 20.265625 20.027344 20.253906 C 20.019531 19.691406 20.210938 19.148438 20.570312 18.714844 C 21 18.320312 21.570312 18.121094 22.152344 18.164062 C 22.796875 18.089844 23.441406 18.320312 23.886719 18.792969 C 24.171875 19.234375 24.308594 19.761719 24.273438 20.289062 C 24.273438 20.765625 23.867188 21.371094 23.125 22.003906 C 22.71875 22.351562 22.277344 22.660156 21.8125 22.925781 L 21.445312 23.125 L 21.445312 25.242188 C 21.445312 25.632812 21.761719 25.949219 22.152344 25.949219 C 22.542969 25.949219 22.859375 25.632812 22.859375 25.242188 C 22.859375 25.226562 22.859375 25.214844 22.859375 25.199219 L 22.859375 23.949219 C 23.722656 23.414062 25.691406 22 25.691406 20.289062 C 25.683594 18.003906 24.429688 16.75 22.152344 16.75 Z M 22.152344 16.75 "/>
<path style=" stroke:none;fill-rule:nonzero;fill:rgb(0%,85.882353%,87.058824%);fill-opacity:1;" d="M 22.148438 26.65625 C 21.757812 26.65625 21.441406 26.972656 21.441406 27.363281 C 21.441406 27.753906 21.757812 28.070312 22.148438 28.070312 C 22.539062 28.070312 22.855469 27.753906 22.855469 27.363281 C 22.855469 26.972656 22.539062 26.65625 22.148438 26.65625 Z M 22.148438 26.65625 "/>
</g>
</svg>
