<?xml version="1.0" encoding="UTF-8"?> <svg xmlns="http://www.w3.org/2000/svg" xmlns:xlink="http://www.w3.org/1999/xlink" width="154" height="154" viewBox="0 0 154 154"><defs><filter id="Ellipse_332" x="0" y="0" width="154" height="154"><feOffset dy="3"></feOffset><feGaussianBlur stdDeviation="8" result="blur"></feGaussianBlur><feFlood flood-opacity="0.161"></feFlood><feComposite operator="in" in2="blur"></feComposite><feComposite in="SourceGraphic"></feComposite></filter></defs><g id="Group_469" data-name="Group 469" transform="translate(-854 -6747)"><g transform="matrix(1, 0, 0, 1, 854, 6747)" filter="url(#Ellipse_332)"><circle id="Ellipse_332-2" data-name="Ellipse 332" cx="53" cy="53" r="53" transform="translate(24 21)" fill="#000a40"></circle></g><g id="noun_supply_chain_continuity_2889973" data-name="noun_supply chain continuity_2889973" transform="translate(892.883 6780.044)"><path id="Path_381" data-name="Path 381" d="M38.846,78.346a26.491,26.491,0,0,1-24.3-16.016l4.372,1.746.56-1.4-6.6-2.633L9.9,65.916l1.347.685,1.89-3.716a27.962,27.962,0,0,0,52.974-4.771l-1.474-.335A26.293,26.293,0,0,1,38.846,78.346Z" transform="translate(0 -10.946)" fill="#00dbde"></path><path id="Path_382" data-name="Path 382" d="M39.167,14.511A26.343,26.343,0,0,1,65.1,35.765L61.562,32.82l-.968,1.161,5.064,4.22,5.021-5.021-1.068-1.068L66.526,35.2a27.958,27.958,0,0,0-55.316,5.76h1.511A26.475,26.475,0,0,1,39.167,14.511Z" transform="translate(-0.321)" fill="#00dbde"></path><path id="Path_383" data-name="Path 383" d="M37.737,42.955V55.629h1.511V42.955l4.545,4.036,1-1.13-6.3-5.6-6.3,5.6,1,1.13Z" transform="translate(-5.448 -6.664)" fill="#00dbde"></path><path id="Path_384" data-name="Path 384" d="M47.389,51.367l6.3,5.6,6.3-5.6-1-1.13-4.545,4.037V41.6H52.936V54.273l-4.544-4.036Z" transform="translate(-9.164 -6.991)" fill="#00dbde"></path><path id="Path_385" data-name="Path 385" d="M28.967,33a.756.756,0,0,0-.756.756V59.6a.755.755,0,0,0,.756.756H57.678a.755.755,0,0,0,.756-.756V33.756A.755.755,0,0,0,57.678,33ZM56.922,58.84h-27.2V34.511h27.2Z" transform="translate(-4.476 -4.889)" fill="#00dbde"></path></g></g></svg> 